<svg height="512" viewBox="0 0 64 64" width="512" xmlns="http://www.w3.org/2000/svg"><g id="Check"><path d="m61 55v6h-55a3 3 0 0 1 0-6z" fill="#ff7956"/><path d="m55 49h6v6h-6z" fill="#fee9ab"/><path d="m61 43v6h-55a3 3 0 0 1 0-6z" fill="#ff7956"/><path d="m51 13h6v20h-6z" fill="#9cdd05"/><path d="m57 9v4h-6v-4h1 4z" fill="#ff9811"/><path d="m57 33-3.02 6-2.98-6z" fill="#ff9811"/><path d="m56 5v4h-4v-4a2.006 2.006 0 0 1 2-2 2.015 2.015 0 0 1 2 2z" fill="#9cdd05"/><path d="m55 55v3l-3-2-3 2v-3-6-2h6v2z" fill="#ff3051"/><path d="m49 49v6h-43a3 3 0 0 1 0-6z" fill="#fee9ab"/><path d="m42.99 15-7.99-7.99-.01-.01h-19.99v-4h32v40h-4v-27.99z" fill="#ff7956"/><path d="m43 15.01v27.99h-32v-36h23.99l.01.01v7.99h7.99z" fill="#fee9ab"/><path d="m42.99 15h-7.99v-7.99z" fill="#ffde55"/><circle cx="27" cy="27" fill="#46f8ff" r="10"/><path d="m61 42h-13v-39a1 1 0 0 0 -1-1h-32a1 1 0 0 0 -1 1v3h-3a1 1 0 0 0 -1 1v35h-4a4 4 0 0 0 -2.643 7 3.995 3.995 0 0 0 0 6 4 4 0 0 0 2.643 7h55a1 1 0 0 0 1-1v-18a1 1 0 0 0 -1-1zm-45-38h30v38h-2v-26.986a1 1 0 0 0 -.293-.707l-8.007-8.014a1 1 0 0 0 -.712-.293h-18.988zm20 5.426 4.573 4.574h-4.573zm-24-1.426h22v7a1 1 0 0 0 1 1h7v26h-30zm-6 36h54v4h-4v-1a1 1 0 0 0 -1-1h-6a1 1 0 0 0 -1 1v1h-42a2 2 0 0 1 0-4zm50 6h4v4h-4zm-2-2v8.132l-1.445-.964a1 1 0 0 0 -1.11 0l-1.445.964v-8.132zm-48 2h42v4h-42a2 2 0 0 1 0-4zm0 10a2 2 0 0 1 0-4h42v2a1 1 0 0 0 1.555.832l2.445-1.632 2.445 1.63a1 1 0 0 0 1.555-.83v-2h4v4z"/><path d="m61 12h-3v-3a1 1 0 0 0 -1-1v-3a3 3 0 0 0 -6 0v3a1 1 0 0 0 -1 1v24a.989.989 0 0 0 .1.444l2.976 6a1 1 0 0 0 .893.556 1 1 0 0 0 .892-.55l3.025-6a1 1 0 0 0 .114-.45v-19h2v7h2v-8a1 1 0 0 0 -1-1zm-5-2v2h-4v-2zm-3-5a1 1 0 0 1 2 0v3h-2zm.982 31.764-1.37-2.764h2.764zm2.018-4.764h-4v-18h4z"/><path d="m27 16a11 11 0 1 0 11 11 11.013 11.013 0 0 0 -11-11zm0 20a9 9 0 1 1 9-9 9.01 9.01 0 0 1 -9 9z"/><path d="m24 29.586-2.121-2.121-1.414 1.414 2.828 2.828a1 1 0 0 0 1.414 0l8.485-8.485-1.414-1.414z"/></g></svg>